# 3ds Max Wavefront OBJ Exporter v0.97b - (c)2007 guruware
# File Created: 17.05.2017 00:07:04

mtllib logo.mtl

#
# object Nike_Letters
#

v  20.6371 0.0000 -17.0192
v  20.6371 2.0000 -17.0192
v  21.9778 0.0000 -17.0192
v  21.9778 2.0000 -17.0192
v  18.4939 0.0000 -11.3245
v  18.4939 2.0000 -11.3245
v  19.8445 0.0000 -11.3245
v  19.8445 2.0000 -11.3245
v  14.7450 0.0000 -11.3245
v  14.7450 2.0000 -11.3245
v  16.8829 0.0000 -17.0214
v  16.8829 2.0000 -17.0214
v  16.0886 0.0000 -11.3245
v  16.0886 2.0000 -11.3245
v  17.0330 0.0000 -13.8455
v  17.0330 2.0000 -13.8455
v  16.8680 0.0000 -11.3245
v  16.8680 2.0000 -11.3245
v  18.3195 0.0000 -11.3245
v  18.3195 2.0000 -11.3245
v  20.4574 0.0000 -17.0214
v  20.4574 2.0000 -17.0214
v  19.1084 0.0000 -17.0214
v  19.1084 2.0000 -17.0214
v  18.1445 0.0000 -14.4686
v  18.1445 2.0000 -14.4686
v  18.3162 0.0000 -17.0214
v  18.3162 2.0000 -17.0214
v  23.7338 0.0000 -11.7027
v  23.7338 2.0000 -11.7027
v  25.6914 0.0000 -16.9141
v  25.6914 2.0000 -16.9141
v  23.6519 0.0000 -14.6752
v  23.6519 2.0000 -14.6752
v  20.0841 0.0000 -11.3245
v  20.0841 2.0000 -11.3245
v  22.2043 0.0000 -17.0197
v  22.2043 2.0000 -17.0197
v  21.4283 0.0000 -11.3245
v  21.4283 2.0000 -11.3245
v  22.3365 0.0000 -13.7055
v  22.3365 2.0000 -13.7055
v  22.3993 0.0000 -11.3245
v  22.3993 2.0000 -11.3245
v  24.3423 0.0000 -11.3244
v  24.3423 2.0000 -11.3244
v  17.1158 0.0000 -9.3739
v  17.1158 2.0000 -9.3739
v  16.5640 0.0000 -9.2667
v  16.5640 2.0000 -9.2667
v  15.4505 0.0000 -9.3763
v  16.0019 2.0000 -9.2675
v  16.0019 0.0000 -9.2675
v  15.4505 2.0000 -9.3763
v  14.9301 2.0000 -9.5890
v  14.9301 0.0000 -9.5890
v  14.6104 0.0000 -9.8344
v  14.6104 2.0000 -9.8344
v  14.1607 0.0000 -10.4980
v  14.3500 2.0000 -10.1421
v  14.3500 0.0000 -10.1421
v  14.1607 2.0000 -10.4980
v  14.0264 0.0000 -11.2882
v  14.0512 2.0000 -10.8859
v  14.0512 0.0000 -10.8859
v  14.0264 2.0000 -11.2882
v  14.0412 2.0000 -11.5770
v  14.0412 0.0000 -11.5770
v  14.1400 0.0000 -12.1463
v  14.1400 2.0000 -12.1463
v  14.0792 0.0000 -11.8636
v  14.0792 2.0000 -11.8636
v  14.2597 2.0000 -12.5352
v  14.2597 0.0000 -12.5352
v  14.5833 0.0000 -13.2814
v  14.5833 2.0000 -13.2814
v  14.4078 0.0000 -12.9143
v  14.4078 2.0000 -12.9143
v  14.2571 2.0000 -12.8824
v  13.9373 0.0000 -12.4783
v  13.9373 2.0000 -12.4783
v  14.2571 0.0000 -12.8824
v  13.6238 0.0000 -12.0692
v  13.6238 2.0000 -12.0692
v  12.9570 0.0000 -11.0934
v  12.9570 2.0000 -11.0934
v  11.9925 0.0000 -8.9401
v  12.4107 2.0000 -10.0454
v  12.4107 0.0000 -10.0454
v  11.9925 2.0000 -8.9401
v  11.8843 0.0000 -8.4657
v  11.8843 2.0000 -8.4657
v  12.0082 0.0000 -7.5072
v  11.8896 2.0000 -7.9791
v  11.8896 0.0000 -7.9791
v  12.0082 2.0000 -7.5072
v  12.5533 0.0000 -6.7092
v  12.2336 2.0000 -7.0760
v  12.2336 0.0000 -7.0760
v  12.5533 2.0000 -6.7092
v  13.4009 0.0000 -6.2450
v  12.9496 2.0000 -6.4270
v  12.9496 0.0000 -6.4270
v  13.4009 2.0000 -6.2450
v  14.0479 0.0000 -6.0934
v  14.7118 0.0000 -6.0658
v  14.7118 2.0000 -6.0658
v  15.3691 0.0000 -6.1629
v  15.3691 2.0000 -6.1629
v  14.0479 2.0000 -6.0934
v  15.6220 2.0000 -6.2175
v  15.6220 0.0000 -6.2175
v  16.1204 0.0000 -6.3559
v  16.1204 2.0000 -6.3559
v  15.8725 0.0000 -6.2819
v  15.8725 2.0000 -6.2819
v  16.2972 2.0000 -6.4129
v  16.2972 0.0000 -6.4129
v  16.6444 0.0000 -6.5450
v  16.6444 2.0000 -6.5450
v  16.4720 0.0000 -6.4760
v  16.4720 2.0000 -6.4760
v  16.9865 2.0000 -6.6779
v  16.9865 0.0000 -6.6779
v  17.6669 0.0000 -6.9531
v  17.6669 2.0000 -6.9531
v  17.3273 0.0000 -6.8140
v  17.3273 2.0000 -6.8140
v  32.8062 0.0000 -13.4830
v  32.8062 2.0000 -13.4830
v  32.8497 0.0000 -13.5024
v  32.8497 2.0000 -13.5024
v  32.9184 0.0000 -13.5676
v  32.8878 2.0000 -13.5310
v  32.8878 0.0000 -13.5310
v  32.9184 2.0000 -13.5676
v  32.9230 0.0000 -13.5767
v  32.9253 0.0000 -13.5867
v  32.9253 2.0000 -13.5867
v  32.9254 2.0000 -13.5969
v  32.9254 0.0000 -13.5969
v  32.9231 2.0000 -13.6069
v  32.9231 0.0000 -13.6069
v  32.9230 2.0000 -13.5767
v  32.8951 0.0000 -13.6179
v  32.8655 0.0000 -13.6231
v  32.8655 2.0000 -13.6231
v  32.8354 2.0000 -13.6225
v  32.8354 0.0000 -13.6225
v  32.8061 2.0000 -13.6159
v  32.8061 0.0000 -13.6159
v  32.8951 2.0000 -13.6179
v  26.7692 0.0000 -11.9774
v  26.7692 2.0000 -11.9774
v  26.9237 0.0000 -12.4252
v  26.9237 2.0000 -12.4252
v  25.3527 0.0000 -12.4252
v  25.3527 2.0000 -12.4252
v  25.8790 0.0000 -13.8115
v  25.8790 2.0000 -13.8115
v  27.1693 0.0000 -13.8115
v  27.1693 2.0000 -13.8115
v  27.5665 0.0000 -14.8704
v  27.5665 2.0000 -14.8704
v  26.2679 0.0000 -14.8704
v  26.2679 2.0000 -14.8704
v  26.7199 0.0000 -16.0752
v  26.7199 2.0000 -16.0752
v  28.0845 0.0000 -16.0752
v  28.0845 2.0000 -16.0752
v  28.4440 0.0000 -17.0192
v  28.4440 2.0000 -17.0192
v  24.3279 0.0000 -17.0192
v  24.3279 2.0000 -17.0192
v  22.9187 0.0000 -15.3139
v  22.9187 2.0000 -15.3139
v  23.5682 0.0000 -17.0192
v  23.5682 2.0000 -17.0192
# 178 vertices

vn 0.0000 0.0000 -1.0000
vn -0.9359 0.0000 -0.3522
vn 0.0000 0.0000 1.0000
vn 0.9365 0.0000 0.3508
vn 0.0000 -1.0000 -0.0000
vn 0.0000 1.0000 -0.0000
vn -0.9362 0.0000 -0.3514
vn -0.9979 0.0000 -0.0653
vn 0.9362 0.0000 0.3513
vn -0.9355 0.0000 -0.3533
vn 0.9977 0.0000 0.0671
vn -0.9361 0.0000 -0.3516
vn 0.7393 0.0000 0.6734
vn 0.9996 0.0000 -0.0275
vn -0.9372 0.0000 -0.3489
vn 0.9343 0.0000 0.3564
vn -0.9997 0.0000 0.0264
vn -0.0000 0.0000 1.0000
vn -0.2258 -0.0000 -0.9742
vn -0.2606 -0.0000 -0.9654
vn -0.2606 0.0000 -0.9654
vn -0.0950 -0.0000 -0.9955
vn -0.0950 0.0000 -0.9955
vn 0.2872 0.0000 -0.9579
vn 0.0979 0.0000 -0.9952
vn 0.4981 0.0000 -0.8671
vn 0.6901 0.0000 -0.7238
vn 0.9279 0.0000 -0.3728
vn 0.8278 0.0000 -0.5610
vn 1.0000 -0.0000 -0.0051
vn 0.9859 0.0000 -0.1676
vn 1.0000 0.0000 -0.0051
vn 0.9958 0.0000 0.0914
vn 0.9958 -0.0000 0.0914
vn 0.9676 -0.0000 0.2525
vn 0.9676 0.0000 0.2525
vn 0.9853 -0.0000 0.1708
vn 0.9853 0.0000 0.1708
vn 0.9442 0.0000 0.3293
vn 0.9442 -0.0000 0.3293
vn 0.9022 0.0000 0.4313
vn 0.9175 -0.0000 0.3978
vn 0.9175 0.0000 0.3978
vn -0.7743 0.0000 -0.6328
vn -0.7792 0.0000 -0.6267
vn -0.7890 0.0000 -0.6144
vn -0.8100 0.0000 -0.5864
vn -0.8577 0.0000 -0.5142
vn -0.9574 0.0000 -0.2888
vn -0.9126 0.0000 -0.4088
vn -0.9943 0.0000 -0.1065
vn -0.9345 0.0000 0.3559
vn -0.9917 0.0000 0.1283
vn -0.6716 0.0000 0.7409
vn -0.8258 0.0000 0.5640
vn -0.3019 0.0000 0.9533
vn -0.4803 0.0000 0.8771
vn -0.3019 -0.0000 0.9533
vn -0.1354 -0.0000 0.9908
vn 0.0525 0.0000 0.9986
vn 0.0525 -0.0000 0.9986
vn 0.1788 -0.0000 0.9839
vn 0.2300 0.0000 0.9732
vn 0.2965 0.0000 0.9550
vn 0.2675 0.0000 0.9636
vn 0.3233 0.0000 0.9463
vn 0.3669 0.0000 0.9302
vn 0.3556 0.0000 0.9346
vn 0.3665 -0.0000 0.9304
vn 0.3665 0.0000 0.9304
vn 0.3876 -0.0000 0.9218
vn 0.3749 0.0000 0.9271
vn 0.3749 -0.0000 0.9271
vn 0.4010 -0.0000 0.9161
vn 0.4011 -0.0000 0.9161
vn 0.5070 -0.0000 0.8619
vn 0.5070 0.0000 0.8619
vn 0.8376 0.0000 0.5462
vn 0.6882 0.0000 0.7255
vn 0.9412 0.0000 0.3379
vn 0.9930 0.0000 0.1180
vn 0.9942 -0.0000 -0.1077
vn 0.9757 0.0000 -0.2189
vn 0.9757 -0.0000 -0.2189
vn 0.3653 0.0000 -0.9309
vn 0.2713 0.0000 -0.9625
vn 0.0762 0.0000 -0.9971
vn -0.1218 0.0000 -0.9926
vn -0.2408 0.0000 -0.9706
vn -0.2619 0.0000 -0.9651
vn 0.9453 0.0000 0.3261
vn 0.9349 0.0000 0.3549
vn 0.9363 0.0000 0.3512
vn 0.9363 0.0000 0.3513
vn 0.9345 0.0000 0.3559
vn -0.0000 0.0000 -1.0000
vn -0.7709 0.0000 -0.6370
vn 0.0004 0.0000 -1.0000
vn -0.0000 1.0000 -0.0000
vn -0.0000 1.0000 0.0000
vn 0.0000 1.0000 0.0000
# 101 vertex normals

g Nike_Letters
usemtl wire_027177088
s 1
f 1//1 2//1 3//1 
f 2//1 4//1 3//1 
s 2
f 5//2 6//2 1//2 
f 6//2 2//2 1//2 
s 1
f 7//3 8//3 5//3 
f 8//3 6//3 5//3 
s 2
f 3//4 4//4 7//4 
f 4//4 8//4 7//4 
s 4
f 3//5 7//5 1//5 
f 7//5 5//5 1//5 
f 4//6 2//6 8//6 
f 2//6 6//6 8//6 
s 1
f 9//7 10//7 11//7 
f 10//7 12//7 11//7 
s 2
f 13//3 14//3 9//3 
f 14//3 10//3 9//3 
s 1
f 15//4 16//4 13//4 
f 16//4 14//4 13//4 
s 2
f 17//8 18//8 15//8 
f 18//8 16//8 15//8 
s 1
f 19//3 20//3 17//3 
f 20//3 18//3 17//3 
s 2
f 21//9 22//9 19//9 
f 22//9 20//9 19//9 
s 1
f 23//1 24//1 21//1 
f 24//1 22//1 21//1 
s 2
f 25//10 26//10 23//10 
f 26//10 24//10 23//10 
s 1
f 27//11 28//11 25//11 
f 28//11 26//11 25//11 
s 2
f 11//1 12//1 27//1 
f 12//1 28//1 27//1 
s 4
f 28//6 12//6 26//6 
f 26//6 12//6 16//6 
f 26//6 16//6 20//6 
f 26//6 20//6 22//6 
f 26//6 22//6 24//6 
f 14//6 16//6 10//6 
f 16//6 18//6 20//6 
f 10//6 16//6 12//6 
f 13//5 9//5 15//5 
f 27//5 25//5 11//5 
f 23//5 21//5 25//5 
f 21//5 19//5 25//5 
f 17//5 15//5 19//5 
f 9//5 11//5 15//5 
f 11//5 25//5 15//5 
f 19//5 15//5 25//5 
s 1
f 29//12 30//12 31//12 
f 30//12 32//12 31//12 
s 2
f 31//13 32//13 33//13 
f 32//13 34//13 33//13 
s 4
f 33//14 34//14 29//14 
f 34//14 30//14 29//14 
s 1
f 35//15 36//15 37//15 
f 36//15 38//15 37//15 
s 2
f 39//3 40//3 35//3 
f 40//3 36//3 35//3 
s 1
f 41//16 42//16 39//16 
f 42//16 40//16 39//16 
s 2
f 43//17 44//17 41//17 
f 44//17 42//17 41//17 
s 1
f 45//18 46//18 43//18 
f 46//18 44//18 43//18 
s 2
f 47//19 48//19 45//20 
f 48//19 46//21 45//20 
f 47//19 49//22 48//19 
f 48//19 49//22 50//23 
f 51//24 52//25 53//25 
f 52//25 51//24 54//24 
f 55//26 54//24 56//26 
f 56//26 54//24 51//24 
f 52//25 50//23 53//25 
f 53//25 50//23 49//22 
f 56//26 57//27 55//26 
f 55//26 57//27 58//27 
f 59//28 60//29 61//29 
f 60//29 59//28 62//28 
f 63//30 64//31 65//31 
f 63//30 66//32 64//31 
f 64//31 62//28 65//31 
f 65//31 62//28 59//28 
f 60//29 58//27 61//29 
f 61//29 58//27 57//27 
f 66//32 63//30 67//33 
f 63//30 68//34 67//33 
f 69//35 70//36 71//37 
f 70//36 72//38 71//37 
f 72//38 67//33 71//37 
f 67//33 68//34 71//37 
f 70//36 69//35 73//39 
f 69//35 74//40 73//39 
f 75//41 76//41 77//42 
f 76//41 78//43 77//42 
f 78//43 73//39 77//42 
f 73//39 74//40 77//42 
s 1
f 76//44 75//44 79//45 
f 80//46 81//46 82//45 
f 83//47 84//47 80//46 
f 84//47 81//46 80//46 
f 81//46 79//45 82//45 
f 82//45 79//45 75//44 
f 83//47 85//48 84//47 
f 84//47 85//48 86//48 
f 87//49 88//50 89//50 
f 87//49 90//49 88//50 
f 88//50 86//48 89//50 
f 89//50 86//48 85//48 
f 87//49 91//51 90//49 
f 90//49 91//51 92//51 
f 93//52 94//53 95//53 
f 94//53 93//52 96//52 
f 97//54 98//55 99//55 
f 98//55 97//54 100//54 
f 101//56 102//57 103//57 
f 101//56 104//58 102//57 
f 102//57 100//54 103//57 
f 103//57 100//54 97//54 
f 98//55 96//52 99//55 
f 99//55 96//52 93//52 
f 94//53 92//51 95//53 
f 95//53 92//51 91//51 
f 101//56 105//59 104//58 
f 106//60 107//61 105//59 
f 106//60 108//62 107//61 
f 108//62 109//62 107//61 
f 107//61 110//59 105//59 
f 110//59 104//58 105//59 
f 109//62 108//62 111//63 
f 108//62 112//63 111//63 
f 113//64 114//64 115//65 
f 114//64 116//65 115//65 
f 116//65 111//63 115//65 
f 111//63 112//63 115//65 
f 114//64 113//64 117//66 
f 113//64 118//66 117//66 
f 119//67 120//67 121//68 
f 120//67 122//68 121//68 
f 122//68 117//66 121//68 
f 117//66 118//66 121//68 
f 120//67 119//67 123//69 
f 119//67 124//70 123//69 
f 125//71 126//71 127//72 
f 126//71 128//73 127//72 
f 128//73 123//69 127//72 
f 123//69 124//70 127//72 
f 129//74 130//75 125//71 
f 130//75 126//71 125//71 
f 129//74 131//76 130//75 
f 130//75 131//76 132//77 
f 133//78 134//79 135//79 
f 133//78 136//78 134//79 
f 134//79 132//77 135//79 
f 135//79 132//77 131//76 
f 133//78 137//80 136//78 
f 138//81 139//81 137//80 
f 139//81 138//81 140//82 
f 138//81 141//82 140//82 
f 142//83 140//82 143//84 
f 139//81 144//80 137//80 
f 144//80 136//78 137//80 
f 140//82 141//82 143//84 
s 2
f 143//85 145//86 142//85 
f 146//87 147//87 145//86 
f 147//87 146//87 148//88 
f 146//87 149//88 148//88 
f 150//89 148//88 151//89 
f 147//87 152//86 145//86 
f 152//86 142//85 145//86 
f 148//88 149//88 151//89 
f 153//90 154//90 151//89 
f 154//90 150//89 151//89 
s 1
f 155//91 156//91 153//91 
f 156//91 154//91 153//91 
s 2
f 157//1 158//1 155//1 
f 158//1 156//1 155//1 
s 1
f 159//92 160//92 157//92 
f 160//92 158//92 157//92 
s 2
f 161//3 162//3 159//3 
f 162//3 160//3 159//3 
s 1
f 163//93 164//93 161//93 
f 164//93 162//93 161//93 
s 2
f 165//1 166//1 163//1 
f 166//1 164//1 163//1 
s 1
f 167//94 168//94 165//94 
f 168//94 166//94 165//94 
s 2
f 169//3 170//3 167//3 
f 170//3 168//3 167//3 
s 1
f 171//95 172//95 169//95 
f 172//95 170//95 169//95 
s 2
f 173//96 174//96 171//96 
f 174//96 172//96 171//96 
s 1
f 175//97 176//97 173//97 
f 176//97 174//97 173//97 
s 2
f 177//95 178//95 175//95 
f 178//95 176//95 175//95 
s 4
f 37//98 38//98 177//98 
f 38//98 178//98 177//98 
s 8
f 31//5 159//5 29//5 
f 33//5 175//5 31//5 
f 175//5 33//5 41//5 
f 175//5 41//5 37//5 
f 175//5 37//5 177//5 
f 41//5 33//5 29//5 
f 41//5 29//5 43//5 
f 39//5 35//5 41//5 
f 175//5 173//5 31//5 
f 173//5 171//5 31//5 
f 169//5 167//5 171//5 
f 171//5 167//5 31//5 
f 163//5 161//5 165//5 
f 161//5 159//5 165//5 
f 159//5 157//5 29//5 
f 155//5 153//5 157//5 
f 151//5 129//5 153//5 
f 149//5 137//5 151//5 
f 137//5 149//5 138//5 
f 149//5 146//5 138//5 
f 143//5 141//5 145//5 
f 141//5 138//5 145//5 
f 137//5 133//5 151//5 
f 133//5 135//5 151//5 
f 135//5 131//5 151//5 
f 131//5 129//5 151//5 
f 129//5 125//5 153//5 
f 127//5 53//5 125//5 
f 127//5 124//5 53//5 
f 124//5 119//5 53//5 
f 53//5 119//5 93//5 
f 53//5 93//5 51//5 
f 118//5 99//5 121//5 
f 118//5 113//5 99//5 
f 113//5 115//5 99//5 
f 99//5 115//5 97//5 
f 115//5 112//5 97//5 
f 106//5 105//5 108//5 
f 105//5 101//5 108//5 
f 101//5 103//5 108//5 
f 103//5 97//5 108//5 
f 99//5 93//5 121//5 
f 93//5 95//5 51//5 
f 95//5 91//5 51//5 
f 91//5 87//5 51//5 
f 89//5 57//5 87//5 
f 85//5 59//5 89//5 
f 83//5 68//5 85//5 
f 80//5 69//5 83//5 
f 69//5 80//5 74//5 
f 75//5 77//5 82//5 
f 77//5 74//5 82//5 
f 82//5 74//5 80//5 
f 69//5 71//5 83//5 
f 71//5 68//5 83//5 
f 68//5 63//5 85//5 
f 63//5 65//5 85//5 
f 65//5 59//5 85//5 
f 59//5 61//5 89//5 
f 61//5 57//5 89//5 
f 57//5 56//5 87//5 
f 56//5 51//5 87//5 
f 53//5 49//5 125//5 
f 49//5 47//5 125//5 
f 47//5 45//5 125//5 
f 43//5 29//5 45//5 
f 29//5 157//5 45//5 
f 125//5 45//5 153//5 
f 167//5 165//5 31//5 
f 157//5 153//5 45//5 
f 165//5 159//5 31//5 
f 41//5 35//5 37//5 
f 108//5 97//5 112//5 
f 121//5 93//5 119//5 
f 138//5 146//5 145//5 
f 30//99 160//99 32//100 
f 34//6 42//6 30//99 
f 42//6 34//6 176//6 
f 42//6 176//6 38//6 
f 42//6 38//6 36//6 
f 42//6 36//6 40//6 
f 176//6 34//6 32//100 
f 176//6 32//100 174//101 
f 178//6 38//6 176//6 
f 42//6 44//6 30//99 
f 44//6 46//6 30//99 
f 48//6 126//6 46//6 
f 48//6 50//6 126//6 
f 50//6 52//6 126//6 
f 54//6 96//6 52//6 
f 55//6 90//6 54//6 
f 55//6 58//6 90//6 
f 90//6 58//6 88//6 
f 58//6 60//6 88//6 
f 64//6 86//6 62//6 
f 64//6 66//6 86//6 
f 66//6 67//6 86//6 
f 86//6 67//6 84//6 
f 67//6 72//6 84//6 
f 73//6 81//6 70//6 
f 81//6 73//6 79//6 
f 76//6 79//6 78//6 
f 78//6 79//6 73//6 
f 81//6 84//6 70//6 
f 86//6 88//6 62//6 
f 90//6 92//6 54//6 
f 92//6 94//6 54//6 
f 94//6 96//6 54//6 
f 98//6 122//6 96//6 
f 100//6 116//6 98//6 
f 102//6 109//6 100//6 
f 102//6 104//6 109//6 
f 104//6 110//6 109//6 
f 110//6 107//6 109//6 
f 109//6 111//6 100//6 
f 111//6 116//6 100//6 
f 116//6 114//6 98//6 
f 114//6 117//6 98//6 
f 117//6 122//6 98//6 
f 122//6 120//6 96//6 
f 96//6 120//6 52//6 
f 120//6 123//6 52//6 
f 123//6 128//6 52//6 
f 46//6 126//6 154//6 
f 46//6 154//6 158//6 
f 46//6 158//6 30//99 
f 132//6 150//6 130//6 
f 132//6 134//6 150//6 
f 134//6 136//6 150//6 
f 136//6 144//6 150//6 
f 150//6 144//6 148//6 
f 140//6 152//6 139//6 
f 140//6 142//6 152//6 
f 152//6 147//6 139//6 
f 147//6 148//6 139//6 
f 139//6 148//6 144//6 
f 150//6 154//6 130//6 
f 154//6 156//6 158//6 
f 158//6 160//99 30//99 
f 32//100 160//99 166//99 
f 32//100 166//99 168//99 
f 32//100 168//99 172//100 
f 32//100 172//100 174//101 
f 164//6 166//99 162//6 
f 168//99 170//6 172//100 
f 162//6 166//99 160//99 
f 52//6 128//6 126//6 
f 130//6 154//6 126//6 
f 88//6 60//6 62//6 
f 84//6 72//6 70//6 
# 0 polygons - 348 triangles

